#N canvas 565 24 720 567 10;
#X declare -lib mrpeach;
#X obj 118 172 s rcvOSC;
#X obj 16 11 import mrpeach;
#X obj 17 48 udpreceive 5555;
#X obj 17 78 unpackOSC;
#X obj 17 117 print rcvOSC;
#X obj 310 317 osc~ 200;
#X obj 310 400 *~;
#X floatatom 396 367 5 0 0 0 - - -;
#X msg 394 322 1;
#X obj 208 216 r rcvOSC;
#X obj 208 252 * 100;
#X obj 394 262 loadbang;
#X obj 118 117 route /xbee;
#X obj 189 173 print routed;
#X obj 207 284 mod 1000;
#X obj 628 13 loadbang;
#X obj 628 62 delay 2000;
#X msg 628 95 \; pd dsp 1;
#X obj 476 318 osc~ 200;
#X obj 310 454 dac~;
#X obj 476 283 + 4;
#X obj 564 314 osc~ 2;
#X obj 564 275 mod 100;
#X obj 357 81 noise~;
#X obj 348 144 *~;
#X obj 472 150 / 100;
#X connect 2 0 3 0;
#X connect 3 0 12 0;
#X connect 5 0 6 0;
#X connect 6 0 19 0;
#X connect 7 0 6 1;
#X connect 8 0 6 1;
#X connect 9 0 10 0;
#X connect 9 0 22 0;
#X connect 10 0 14 0;
#X connect 11 0 8 0;
#X connect 12 0 0 0;
#X connect 14 0 5 0;
#X connect 14 0 20 0;
#X connect 15 0 16 0;
#X connect 16 0 17 0;
#X connect 18 0 19 1;
#X connect 20 0 18 0;
#X connect 21 0 6 1;
#X connect 22 0 21 0;
#X connect 22 0 25 0;
#X connect 23 0 24 0;
#X connect 24 0 19 0;
#X connect 24 0 19 1;
#X connect 25 0 24 1;
