#N canvas 264 22 1146 811 10;
#X declare -lib mrpeach;
#X obj 41 204 s rcvOSC;
#X obj 16 11 import mrpeach;
#X obj 18 319 print rcvOSC;
#X obj 802 11 loadbang;
#X obj 802 60 delay 2000;
#X msg 802 93 \; pd dsp 1;
#X obj 17 48 udpreceive 5557;
#X obj 20 257 print dist;
#X obj 21 355 print rssi;
#X obj 32 390 print idx;
#N canvas 836 235 508 440 oscReceive 0;
#X obj 70 37 inlet;
#X obj 70 113 route /dist;
#X obj 179 114 route /rssi;
#X obj 70 162 route 0 1 2;
#X floatatom 48 234 5 0 0 0 - - -;
#X floatatom 96 236 5 0 0 0 - - -;
#X floatatom 153 235 5 0 0 0 - - -;
#X obj 179 161 route 0 1 2;
#X floatatom 248 236 5 0 0 0 - - -;
#X floatatom 297 234 5 0 0 0 - - -;
#X floatatom 343 233 5 0 0 0 - - -;
#X obj 247 339 s rssi_1;
#X obj 315 340 s rssi_2;
#X obj 379 340 s rssi_3;
#X obj 70 73 unpackOSC;
#X obj 44 339 s dist_1;
#X obj 112 340 s dist_2;
#X obj 176 340 s dist_3;
#X connect 0 0 14 0;
#X connect 1 0 3 0;
#X connect 2 0 7 0;
#X connect 3 0 4 0;
#X connect 3 0 15 0;
#X connect 3 1 5 0;
#X connect 3 1 16 0;
#X connect 3 2 6 0;
#X connect 3 2 17 0;
#X connect 7 0 8 0;
#X connect 7 0 11 0;
#X connect 7 1 9 0;
#X connect 7 1 12 0;
#X connect 7 2 10 0;
#X connect 7 2 13 0;
#X connect 14 0 1 0;
#X connect 14 0 2 0;
#X restore 17 82 pd oscReceive;
#X obj 655 389 r dist_1;
#X obj 242 86 r dist_2;
#X obj 609 85 r dist_3;
#X obj 722 389 r rssi_1;
#X obj 303 86 r rssi_2;
#X obj 689 85 r rssi_3;
#X obj 197 335 phasor~ 399;
#X obj 246 651 dac~;
#X obj 246 375 *~;
#X obj 186 259 osc~;
#X obj 285 223 phasor~ 399;
#X floatatom 321 183 5 0 0 0 - - -;
#X obj 670 485 noise~;
#X obj 201 299 *~;
#X obj 254 255 * 10;
#X msg 261 291 100;
#X obj 268 145 / 20;
#X obj 325 457 *~;
#X obj 507 185 bng 15 250 50 0 empty empty empty 17 7 0 10 -262144
-1 -1;
#X obj 507 273 bng 15 250 50 0 empty empty empty 17 7 0 10 -262144
-1 -1;
#X obj 503 218 metro 2000;
#X floatatom 593 253 5 0 0 0 - - -;
#X obj 539 348 sel 1;
#X obj 480 348 sel 0;
#X obj 536 399 bng 15 250 50 0 empty empty empty 17 7 0 10 -262144
-1 -1;
#X msg 440 397 1;
#X msg 477 396 0;
#X floatatom 444 431 5 0 0 0 - - -;
#X obj 559 399 bng 15 250 50 0 empty empty empty 17 7 0 10 -262144
-1 -1;
#X obj 514 316 tgl 15 0 empty empty empty 17 7 0 10 -262144 -1 -1 0
1;
#X obj 487 151 * 80;
#X obj 689 187 osc~ 399;
#X obj 438 243 *~;
#X obj 399 596 *~;
#X obj 656 432 / 100;
#X obj 665 547 bp~ 400 0.5;
#X obj 726 433 * 10;
#X obj 805 438 / 100;
#X obj 792 529 -;
#X msg 780 465 1;
#X obj 672 669 noise~;
#X obj 672 698 bp~ 400 0.5;
#X obj 835 639 *;
#X obj 788 589 + 900;
#X obj 745 627 - 0.1;
#X msg 427 305 0;
#X obj 691 142 * 90;
#X obj 596 133 * 5;
#X obj 284 414 bp~ 4200 0.01;
#X obj 359 373 lop~ 100;
#X obj 359 341 phasor~ 399;
#X obj 530 24 loadbang;
#X obj 401 470 *~ 0.1;
#X connect 3 0 4 0;
#X connect 4 0 5 0;
#X connect 6 0 10 0;
#X connect 11 0 45 0;
#X connect 12 0 20 0;
#X connect 12 0 27 0;
#X connect 13 0 41 0;
#X connect 13 0 58 0;
#X connect 14 0 47 0;
#X connect 14 0 48 0;
#X connect 15 0 25 0;
#X connect 16 0 57 0;
#X connect 17 0 19 0;
#X connect 19 0 18 0;
#X connect 20 0 24 1;
#X connect 21 0 19 1;
#X connect 22 0 21 1;
#X connect 23 0 46 0;
#X connect 24 0 17 0;
#X connect 25 0 24 0;
#X connect 26 0 17 1;
#X connect 27 0 21 0;
#X connect 28 0 18 1;
#X connect 28 0 18 0;
#X connect 29 0 31 0;
#X connect 30 0 40 0;
#X connect 31 0 30 0;
#X connect 33 0 35 0;
#X connect 33 0 36 0;
#X connect 33 1 39 0;
#X connect 34 0 37 0;
#X connect 36 0 38 0;
#X connect 37 0 38 0;
#X connect 38 0 63 0;
#X connect 40 0 33 0;
#X connect 40 0 34 0;
#X connect 40 0 56 0;
#X connect 41 0 43 0;
#X connect 42 0 43 1;
#X connect 43 0 61 0;
#X connect 44 0 18 1;
#X connect 45 0 44 1;
#X connect 46 0 44 0;
#X connect 47 0 46 1;
#X connect 47 0 54 0;
#X connect 48 0 49 1;
#X connect 48 0 53 1;
#X connect 49 0 46 2;
#X connect 49 0 55 0;
#X connect 50 0 49 0;
#X connect 51 0 52 0;
#X connect 52 0 44 0;
#X connect 53 0 52 1;
#X connect 54 0 53 0;
#X connect 55 0 52 2;
#X connect 56 0 61 1;
#X connect 57 0 42 0;
#X connect 58 0 31 1;
#X connect 58 0 32 0;
#X connect 59 0 28 0;
#X connect 60 0 28 0;
#X connect 61 0 60 0;
#X connect 61 0 59 0;
#X connect 62 0 29 0;
#X connect 63 0 28 1;
