#N canvas 5 186 530 447 10;
#X obj 87 42 inlet;
#X obj 73 231 outlet;
#X obj 124 232 outlet;
#X obj 178 231 outlet;
#X obj 106 162 twodigi;
#X obj 165 162 twodigi;
#X obj 65 177 ftos;
#X obj 88 90 date;
#X connect 0 0 7 0;
#X connect 4 0 2 0;
#X connect 5 0 3 0;
#X connect 6 0 1 0;
#X connect 7 0 6 0;
#X connect 7 1 4 0;
#X connect 7 2 5 0;
