#N canvas 536 22 569 494 10;
#X obj 265 51 inlet;
#X obj 148 352 sel 1;
#X msg 192 168 0;
#X msg 229 170 1;
#X obj 216 262 sel 1;
#X obj 173 301 tgl 15 0 empty empty empty 17 7 0 10 -262144 -1 -1 0
1;
#X obj 166 21 loadbang;
#X obj 112 436 outlet;
#X obj 296 97 f \$1;
#X obj 224 435 outlet;
#X text 275 436 Output : 1 or 0;
#X text 26 436 Output : bang;
#X text 341 98 Threshold;
#X obj 268 136 >;
#X connect 0 0 13 0;
#X connect 1 0 2 0;
#X connect 1 0 7 0;
#X connect 1 1 3 0;
#X connect 2 0 4 1;
#X connect 3 0 4 1;
#X connect 4 0 5 0;
#X connect 5 0 1 0;
#X connect 5 0 9 0;
#X connect 6 0 3 0;
#X connect 6 0 8 0;
#X connect 8 0 13 1;
#X connect 13 0 4 0;
