#N canvas 537 106 615 457 10;
#X obj 506 217 pack f f;
#X msg 497 147 0;
#X obj 494 181 t f b b;
#X obj 469 120 bng 15 250 50 0 empty empty empty 17 7 0 10 -262144
-1 -1;
#X obj 464 83 inlet;
#X obj 113 217 pack f f;
#X obj 101 181 t f b b;
#X obj 76 120 bng 15 250 50 0 empty empty empty 17 7 0 10 -262144 -1
-1;
#X obj 71 83 inlet;
#X msg 104 147 1;
#X obj 266 55 tgl 15 0 empty empty empty 17 7 0 10 -262144 -1 -1 0
1;
#X obj 324 132 counter;
#X obj 114 286 line~;
#X obj 115 351 snapshot~;
#X obj 164 317 metro 10;
#X obj 115 380 == 1;
#X obj 266 80 metro 1;
#X obj 164 289 loadbang;
#X obj 38 387 outlet~;
#X obj 183 183 f \$1;
#X obj 325 207 sel \$2;
#X obj 576 183 f \$3;
#X connect 0 0 12 0;
#X connect 1 0 2 0;
#X connect 2 0 0 0;
#X connect 2 2 21 0;
#X connect 3 0 1 0;
#X connect 4 0 3 0;
#X connect 5 0 12 0;
#X connect 6 0 5 0;
#X connect 6 2 19 0;
#X connect 7 0 9 0;
#X connect 8 0 7 0;
#X connect 9 0 6 0;
#X connect 10 0 16 0;
#X connect 11 0 20 0;
#X connect 12 0 13 0;
#X connect 12 0 18 0;
#X connect 13 0 15 0;
#X connect 14 0 13 0;
#X connect 15 0 10 0;
#X connect 16 0 11 0;
#X connect 17 0 14 0;
#X connect 19 0 5 1;
#X connect 20 0 3 0;
#X connect 20 0 10 0;
#X connect 20 0 11 3;
#X connect 21 0 0 1;
