#N canvas 356 196 292 335 10;
#X obj 111 203 line~;
#X obj 126 106 pack f f;
#X msg 117 36 0;
#X msg 145 140 1;
#X obj 114 70 t f b b;
#X obj 109 242 outlet~;
#X obj 196 72 f \$1;
#X obj 89 9 bng 15 250 50 0 empty empty empty 17 7 0 10 -262144 -1
-1;
#X obj 84 -28 inlet;
#X connect 0 0 5 0;
#X connect 1 0 0 0;
#X connect 2 0 4 0;
#X connect 3 0 0 0;
#X connect 4 0 1 0;
#X connect 4 1 3 0;
#X connect 4 2 6 0;
#X connect 6 0 1 1;
#X connect 7 0 2 0;
#X connect 8 0 7 0;
