#N canvas 317 22 909 770 10;
#X symbolatom 299 606 40 0 0 0 - - -;
#X obj 299 539 symbol;
#X msg 227 439 set \$1\$2\$3\$4\$5\$6\$7;
#X msg 299 507 20151106_171132;
#X obj 224 470 t b a;
#X obj 588 605 writesf~ 2;
#X msg 778 522 stop;
#X msg 715 523 print;
#X msg 589 524 open \$1 \, start;
#X obj 299 682 print Recording File name;
#X obj 299 645 list trim;
#X obj 281 38 inlet;
#X obj 281 82 sel 1;
#X text 711 48 Audio Signal;
#X text 345 38 1=ON / 0=OFF;
#X obj 656 46 inlet~;
#X obj 549 688 print Recording;
#X obj 488 383 t b b a;
#X obj 673 386 t b b b;
#X obj 275 272 symbol;
#X msg 274 225 symbol _;
#X obj 189 230 date2;
#X obj 227 409 pack s s s s s s s;
#X obj 353 224 time2;
#X obj 262 137 t b b b;
#X obj 299 572 makefilename PD_Rec_%s.wav;
#X msg 627 641 STOPP!!!;
#X msg 550 641 START!!!;
#X connect 0 0 10 0;
#X connect 1 0 25 0;
#X connect 2 0 4 0;
#X connect 3 0 1 0;
#X connect 4 0 3 0;
#X connect 4 1 3 0;
#X connect 6 0 5 0;
#X connect 7 0 5 0;
#X connect 8 0 5 0;
#X connect 10 0 9 0;
#X connect 11 0 12 0;
#X connect 12 0 24 0;
#X connect 12 1 18 0;
#X connect 15 0 5 0;
#X connect 17 0 7 0;
#X connect 17 1 27 0;
#X connect 17 2 8 0;
#X connect 18 0 7 0;
#X connect 18 1 26 0;
#X connect 18 2 6 0;
#X connect 19 0 22 3;
#X connect 20 0 19 0;
#X connect 21 0 22 0;
#X connect 21 1 22 1;
#X connect 21 2 22 2;
#X connect 22 0 2 0;
#X connect 23 0 22 4;
#X connect 23 1 22 5;
#X connect 23 2 22 6;
#X connect 24 0 21 0;
#X connect 24 1 20 0;
#X connect 24 2 23 0;
#X connect 25 0 0 0;
#X connect 25 0 17 0;
#X connect 26 0 16 0;
#X connect 27 0 16 0;
