#N canvas 225 22 895 634 10;
#X declare -lib mrpeach;
#X obj 13 -203 import mrpeach;
#X obj 14 -311 loadbang;
#X obj 14 -283 delay 2000;
#X msg 14 -250 \; pd dsp 1;
#X obj 14 -166 udpreceive 5557;
#N canvas 447 135 471 404 oscReceive 0;
#X obj 70 37 inlet;
#X obj 70 113 route /dist;
#X obj 179 114 route /rssi;
#X obj 70 162 route 0 1 2;
#X obj 179 161 route 0 1 2;
#X obj 247 339 s rssi_1;
#X obj 315 340 s rssi_2;
#X obj 379 340 s rssi_3;
#X obj 70 73 unpackOSC;
#X obj 44 339 s dist_1;
#X obj 112 340 s dist_2;
#X obj 176 340 s dist_3;
#X text 309 364 between Center;
#X text 100 363 between modules;
#X connect 0 0 8 0;
#X connect 1 0 3 0;
#X connect 2 0 4 0;
#X connect 3 0 9 0;
#X connect 3 1 10 0;
#X connect 3 2 11 0;
#X connect 4 0 5 0;
#X connect 4 1 6 0;
#X connect 4 2 7 0;
#X connect 8 0 1 0;
#X connect 8 0 2 0;
#X restore 14 -132 pd oscReceive;
#X obj 120 150 tgl 15 0 empty empty empty 17 7 0 10 -262144 -1 -1 0
1;
#X obj 121 194 rec;
#X msg 18 47 1;
#X msg 119 44 0;
#X obj 18 17 r recStartMsg;
#X obj 119 16 r recStopMsg;
#N canvas 543 163 657 308 recCon 1;
#X obj 23 15 inlet;
#X obj 23 51 unpackOSC;
#X obj 126 213 s recStartMsg;
#X obj 23 211 s recStopMsg;
#X obj 23 153 route 0 1;
#X obj 23 85 route /recCtrl;
#X obj 140 85 route /metroCtrl;
#X obj 141 147 route 1 0;
#X obj 227 215 s metroOn;
#X obj 297 216 s metroOff;
#X obj 376 216 s metroSpd;
#X obj 448 146 route 1 0;
#X obj 298 86 route /bcsoundCtrl;
#X obj 470 214 s bcsoundOn;
#X obj 559 211 s bcsoundOff;
#X connect 0 0 1 0;
#X connect 1 0 5 0;
#X connect 1 0 6 0;
#X connect 1 0 12 0;
#X connect 4 0 3 0;
#X connect 4 1 2 0;
#X connect 5 0 4 0;
#X connect 6 0 7 0;
#X connect 7 0 8 0;
#X connect 7 1 9 0;
#X connect 7 2 10 0;
#X connect 11 0 13 0;
#X connect 11 1 14 0;
#X connect 12 0 11 0;
#X restore 127 -130 pd recCon;
#X obj 127 -164 udpreceive 5558;
#N canvas 314 72 1000 749 sounds 0;
#X obj 714 -47 r dist_1;
#X obj 513 -272 r dist_3;
#X obj 781 -47 r rssi_1;
#X obj 593 -272 r rssi_3;
#X obj 729 49 noise~;
#X obj 346 102 *~;
#X obj 411 -172 bng 15 250 50 0 empty empty empty 17 7 0 10 -262144
-1 -1;
#X obj 411 -84 bng 15 250 50 0 empty empty empty 17 7 0 10 -262144
-1 -1;
#X obj 407 -139 metro 2000;
#X floatatom 497 -104 5 0 0 0 - - -;
#X obj 569 -30 sel 1;
#X obj 510 -30 sel 0;
#X obj 566 21 bng 15 250 50 0 empty empty empty 17 7 0 10 -262144 -1
-1;
#X msg 470 19 1;
#X msg 507 18 0;
#X floatatom 474 53 5 0 0 0 - - -;
#X obj 589 21 bng 15 250 50 0 empty empty empty 17 7 0 10 -262144 -1
-1;
#X obj 544 -62 tgl 15 0 empty empty empty 17 7 0 10 -262144 -1 -1 1
1;
#X obj 391 -206 * 80;
#X obj 593 -170 osc~ 399;
#X obj 333 -91 *~;
#X obj 688 163 *~;
#X obj 715 -4 / 100;
#X obj 724 111 bp~ 400 0.5;
#X obj 785 -3 * 10;
#X obj 864 2 / 100;
#X obj 851 93 -;
#X msg 839 29 1;
#X obj 731 233 noise~;
#X obj 731 262 bp~ 400 0.5;
#X obj 894 203 *;
#X obj 847 153 + 900;
#X obj 804 191 - 0.1;
#X msg 448 -50 0;
#X obj 595 -215 * 90;
#X obj 500 -224 * 5;
#X obj 305 59 bp~ 4200 0.01;
#X obj 380 18 lop~ 100;
#X obj 380 -14 phasor~ 399;
#X obj 300 -241 loadbang;
#X obj 422 115 *~ 0.1;
#X connect 0 0 22 0;
#X connect 1 0 18 0;
#X connect 1 0 35 0;
#X connect 2 0 24 0;
#X connect 2 0 25 0;
#X connect 3 0 34 0;
#X connect 4 0 23 0;
#X connect 6 0 8 0;
#X connect 7 0 17 0;
#X connect 8 0 7 0;
#X connect 10 0 12 0;
#X connect 10 0 13 0;
#X connect 10 1 16 0;
#X connect 11 0 14 0;
#X connect 13 0 15 0;
#X connect 14 0 15 0;
#X connect 15 0 40 0;
#X connect 17 0 10 0;
#X connect 17 0 11 0;
#X connect 17 0 33 0;
#X connect 18 0 20 0;
#X connect 19 0 20 1;
#X connect 20 0 38 0;
#X connect 22 0 21 1;
#X connect 23 0 21 0;
#X connect 24 0 23 1;
#X connect 24 0 31 0;
#X connect 25 0 26 1;
#X connect 25 0 30 1;
#X connect 26 0 23 2;
#X connect 26 0 32 0;
#X connect 27 0 26 0;
#X connect 28 0 29 0;
#X connect 29 0 21 0;
#X connect 30 0 29 1;
#X connect 31 0 30 0;
#X connect 32 0 29 2;
#X connect 33 0 38 1;
#X connect 34 0 19 0;
#X connect 35 0 8 1;
#X connect 35 0 9 0;
#X connect 36 0 5 0;
#X connect 37 0 5 0;
#X connect 38 0 37 0;
#X connect 38 0 36 0;
#X connect 39 0 6 0;
#X connect 40 0 5 1;
#X restore 18 257 pd sounds;
#X obj 18 -28 s meetAB;
#X obj 82 -28 s meetBC;
#X obj 142 -27 s meetCA;
#X obj 254 -28 s notAll;
#X obj 209 -28 s all;
#N canvas 776 22 518 440 metronome 0;
#N canvas 480 90 507 380 s2 0;
#X obj 110 167 *~;
#X obj 50 51 osc~;
#X obj 170 48 phasor~ 399;
#X obj 65 91 *~;
#X obj 118 47 * 10;
#X obj 61 127 phasor~ 399;
#X obj 157 12 / 20;
#X obj 110 271 outlet~;
#X obj 52 -44 inlet;
#X obj 116 -46 inlet;
#X obj 110 217 *~;
#X obj 274 85 bng 15 250 50 0 empty empty empty 17 7 0 10 -262144 -1
-1;
#X obj 267 -15 inlet;
#X obj 275 123 lineN 50 50 50;
#X msg 223 12 0;
#X connect 0 0 10 0;
#X connect 1 0 3 1;
#X connect 2 0 0 1;
#X connect 3 0 5 0;
#X connect 4 0 3 0;
#X connect 5 0 0 0;
#X connect 6 0 2 0;
#X connect 8 0 1 0;
#X connect 8 0 6 0;
#X connect 9 0 4 0;
#X connect 10 0 7 0;
#X connect 11 0 13 0;
#X connect 11 0 14 0;
#X connect 12 0 11 0;
#X connect 13 0 10 1;
#X connect 14 0 2 1;
#X connect 14 0 5 1;
#X restore 60 -158 pd s2;
#X obj 154 -312 tgl 15 0 empty empty empty 17 7 0 10 -262144 -1 -1
0 1;
#X obj 60 -122 s~ metronome;
#X obj 202 -314 r metroSpd;
#X obj 80 -384 r metroOn;
#X obj 158 -384 r metroOff;
#X obj 148 -274 metro 500;
#X msg 80 -353 1;
#X msg 158 -355 0;
#X msg 235 -350 1000;
#X msg 32 -294 100;
#X obj 314 -430 r rssi_1;
#X obj 376 -431 r rssi_2;
#X obj 439 -431 r rssi_3;
#X obj 315 -405 avg3;
#X obj 316 -380 * 3;
#X obj 316 -354 +;
#X obj 316 -333 t b f;
#X obj 32 -325 loadbang;
#X text 21 -424 <Metronome>;
#X connect 0 0 2 0;
#X connect 1 0 6 0;
#X connect 3 0 6 1;
#X connect 4 0 7 0;
#X connect 5 0 8 0;
#X connect 6 0 0 2;
#X connect 7 0 1 0;
#X connect 8 0 1 0;
#X connect 9 0 6 1;
#X connect 10 0 0 1;
#X connect 11 0 14 0;
#X connect 12 0 14 1;
#X connect 13 0 14 2;
#X connect 14 0 15 0;
#X connect 15 0 16 0;
#X connect 16 0 17 0;
#X connect 17 1 0 0;
#X connect 18 0 10 0;
#X restore 388 -203 pd metronome;
#N canvas 753 95 635 575 meet 0;
#X obj 135 318 +;
#X obj 159 345 +;
#X obj 158 386 sel 3;
#X obj 319 206 t b f;
#X obj 211 207 t b f;
#X obj 245 384 lessOnce 3;
#X msg 245 337 4;
#X obj 58 492 outlet;
#X obj 135 492 outlet;
#X obj 211 493 outlet;
#X obj 288 493 outlet;
#X obj 365 493 outlet;
#X obj 33 92 lessOnce 40;
#X obj 150 92 lessOnce 40;
#X obj 253 93 lessOnce 40;
#X obj 33 46 r dist_2;
#X obj 150 46 r dist_3;
#X obj 253 47 r dist_1;
#X connect 0 0 1 0;
#X connect 1 0 2 0;
#X connect 2 0 6 0;
#X connect 2 0 10 0;
#X connect 2 1 5 0;
#X connect 3 0 0 0;
#X connect 3 1 1 1;
#X connect 4 0 0 0;
#X connect 4 1 0 1;
#X connect 5 0 11 0;
#X connect 6 0 5 0;
#X connect 12 0 7 0;
#X connect 12 1 0 0;
#X connect 13 0 8 0;
#X connect 13 1 4 0;
#X connect 14 0 9 0;
#X connect 14 1 3 0;
#X connect 15 0 12 0;
#X connect 16 0 13 0;
#X connect 17 0 14 0;
#X restore 14 -102 pd meet;
#N canvas 667 252 520 358 audioRoute 0;
#X obj 216 245 dac~;
#X obj 19 16 r~ metronome;
#X obj 172 65 r~ high;
#X obj 240 63 r~ kick;
#X obj 302 64 r~ snare;
#X obj 96 64 r~ allTog;
#X obj 355 123 r~ bc_1;
#X obj 404 123 r~ bc_2;
#X obj 454 123 r~ bc_3;
#X text 201 32 Meeting sounds;
#X text 365 102 Between center sounds;
#X text 32 -4 Metronome;
#X connect 1 0 0 0;
#X connect 1 0 0 1;
#X connect 2 0 0 1;
#X connect 2 0 0 0;
#X connect 3 0 0 0;
#X connect 3 0 0 1;
#X connect 4 0 0 1;
#X connect 4 0 0 0;
#X connect 5 0 0 0;
#X connect 5 0 0 1;
#X connect 6 0 0 0;
#X connect 6 0 0 1;
#X connect 7 0 0 0;
#X connect 7 0 0 1;
#X connect 8 0 0 0;
#X connect 8 0 0 1;
#X restore 388 -133 pd audioRoute;
#N canvas 686 60 467 331 allTogetherSound 1;
#N canvas 630 101 535 404 s1 0;
#X obj 110 167 *~;
#X obj 50 51 osc~;
#X obj 170 48 phasor~ 399;
#X obj 65 91 *~;
#X obj 118 47 * 10;
#X obj 61 127 phasor~ 399;
#X obj 157 12 / 20;
#X obj 111 258 outlet~;
#X obj 52 -44 inlet;
#X obj 116 -46 inlet;
#X obj 216 -6 bng 15 250 50 0 empty empty empty 17 7 0 10 -262144 -1
-1;
#X obj 277 -34 inlet;
#X obj 110 221 *~;
#X msg 216 18 0;
#X obj 279 196 line~;
#X text 350 135 on;
#X text 347 164 off;
#X msg 298 165 0 500;
#X obj 356 58 sel 1;
#X msg 279 140 1 500;
#X obj 350 -3 r all;
#X obj 415 -6 r notAll;
#X msg 350 25 1;
#X msg 416 25 0;
#X connect 0 0 12 0;
#X connect 1 0 3 1;
#X connect 2 0 0 1;
#X connect 3 0 5 0;
#X connect 4 0 3 0;
#X connect 5 0 0 0;
#X connect 6 0 2 0;
#X connect 8 0 1 0;
#X connect 8 0 6 0;
#X connect 9 0 4 0;
#X connect 10 0 13 0;
#X connect 11 0 10 0;
#X connect 12 0 7 0;
#X connect 13 0 2 1;
#X connect 13 0 5 1;
#X connect 14 0 12 1;
#X connect 17 0 14 0;
#X connect 18 0 19 0;
#X connect 18 1 17 0;
#X connect 19 0 14 0;
#X connect 20 0 22 0;
#X connect 21 0 23 0;
#X connect 22 0 18 0;
#X connect 23 0 18 0;
#X restore 122 -137 pd s1;
#X obj 195 -208 bng 15 250 50 0 empty empty empty 17 7 0 10 -262144
-1 -1;
#X obj 195 -239 r all;
#X obj 48 -250 r rssi_1;
#X obj 119 -249 r rssi_2;
#X obj 48 -220 - 20;
#X obj 120 -218 - 20;
#X obj 123 -50 s~ allTog;
#X connect 0 0 7 0;
#X connect 1 0 0 2;
#X connect 2 0 1 0;
#X connect 3 0 5 0;
#X connect 4 0 6 0;
#X connect 5 0 0 0;
#X connect 6 0 0 1;
#X restore 483 -173 pd allTogetherSound;
#N canvas 277 93 906 663 meetSounds 0;
#N canvas 400 271 652 712 s3 0;
#X obj 126 165 *~;
#X obj 349 33 sel 1;
#X obj 290 33 sel 0;
#X msg 250 82 1;
#X msg 287 81 0;
#X floatatom 254 116 5 0 0 0 - - -;
#X obj 324 1 tgl 15 0 empty empty empty 17 7 0 10 -262144 -1 -1 1 1
;
#X obj 171 -143 * 80;
#X obj 373 -107 osc~ 399;
#X obj 113 -28 *~;
#X msg 228 13 0;
#X obj 375 -152 * 90;
#X obj 280 -161 * 5;
#X obj 160 81 lop~ 100;
#X obj 264 -222 inlet;
#X obj 345 -224 inlet;
#X obj 126 304 outlet~;
#X obj 131 238 *~;
#X obj 410 113 bng 15 250 50 0 empty empty empty 17 7 0 10 -262144
-1 -1;
#X obj 453 -227 inlet;
#X obj 184 -109 loadbang;
#X obj 85 122 bp~ 400 0.01;
#X obj 160 49 osc~ 199;
#X obj 329 166 lineN 10 300 100;
#X obj 202 178 *~ 0.3;
#X connect 0 0 17 0;
#X connect 1 0 3 0;
#X connect 2 0 4 0;
#X connect 3 0 5 0;
#X connect 4 0 5 0;
#X connect 5 0 24 0;
#X connect 6 0 1 0;
#X connect 6 0 2 0;
#X connect 6 0 10 0;
#X connect 7 0 9 0;
#X connect 8 0 9 1;
#X connect 9 0 22 0;
#X connect 10 0 22 1;
#X connect 11 0 8 0;
#X connect 13 0 0 0;
#X connect 14 0 12 0;
#X connect 14 0 7 0;
#X connect 15 0 11 0;
#X connect 17 0 16 0;
#X connect 18 0 23 0;
#X connect 19 0 18 0;
#X connect 20 0 6 0;
#X connect 21 0 0 0;
#X connect 22 0 13 0;
#X connect 22 0 21 0;
#X connect 23 0 17 1;
#X connect 24 0 0 1;
#X restore 685 -43 pd s3;
#X obj 731 -174 loadbang;
#N canvas 840 471 611 476 kicknsnr 0;
#X obj 155 2 inlet;
#X obj 169 285 outlet~;
#X obj 163 102 line~;
#X obj 162 126 *~;
#X obj 162 149 *~;
#X msg 146 71 1 2;
#X obj 74 63 del 2;
#X obj 170 242 *~;
#X obj 163 218 osc~;
#X obj 162 178 *~ 100;
#X obj 162 198 +~ 20;
#X obj 279 -1 inlet;
#X obj 267 283 outlet~;
#X msg 244 69 1 2;
#X obj 268 240 *~;
#X obj 234 185 noise~;
#X obj 268 215 bp~ 400 2;
#X obj 261 97 line;
#X obj 259 124 *;
#X obj 259 147 *;
#X obj 315 162 * 100;
#X obj 320 182 + 600;
#X obj 311 19 unpack 1 2 3 4;
#X obj 267 262 *~;
#X obj 275 29 t;
#X obj 277 49 del 2;
#X obj 185 25 unpack 1 2;
#X obj 157 30 t;
#X obj 77 103 pack 1 2;
#X msg 73 82 0;
#X msg 277 69 0 400;
#X obj 169 264 *~ 1;
#X connect 0 0 26 0;
#X connect 0 0 27 0;
#X connect 2 0 3 0;
#X connect 2 0 3 1;
#X connect 3 0 4 0;
#X connect 3 0 4 1;
#X connect 4 0 7 1;
#X connect 4 0 9 0;
#X connect 5 0 2 0;
#X connect 6 0 29 0;
#X connect 7 0 31 0;
#X connect 8 0 7 0;
#X connect 9 0 10 0;
#X connect 10 0 8 0;
#X connect 11 0 22 0;
#X connect 13 0 17 0;
#X connect 14 0 23 0;
#X connect 15 0 16 0;
#X connect 16 0 14 0;
#X connect 17 0 18 0;
#X connect 17 0 18 1;
#X connect 18 0 19 0;
#X connect 18 0 19 1;
#X connect 19 0 14 1;
#X connect 19 0 20 0;
#X connect 20 0 21 0;
#X connect 21 0 16 1;
#X connect 22 0 20 1;
#X connect 22 0 24 0;
#X connect 22 1 21 1;
#X connect 22 2 16 2;
#X connect 22 3 23 1;
#X connect 23 0 12 0;
#X connect 24 0 13 0;
#X connect 24 0 25 0;
#X connect 25 0 30 0;
#X connect 26 0 28 1;
#X connect 26 1 9 1;
#X connect 27 0 6 0;
#X connect 27 0 5 0;
#X connect 28 0 2 0;
#X connect 29 0 28 0;
#X connect 30 0 17 0;
#X connect 31 0 1 0;
#X restore 166 131 pd kicknsnr;
#X text 122 119 drums;
#X obj 65 -142 r meetAB;
#X obj 64 -104 bng 15 250 50 0 empty empty empty 17 7 0 10 -262144
-1 -1;
#X obj 109 34 pack 1 400;
#X msg 64 -50 1;
#X obj 93 -23 *;
#X obj 236 -106 bng 15 250 50 0 empty empty empty 17 7 0 10 -262144
-1 -1;
#X obj 832 -178 bng 15 250 50 0 empty empty empty 17 7 0 10 -262144
-1 -1;
#X obj 235 -135 r meetBC;
#X obj 832 -216 r meetCA;
#X obj 105 -73 r rssi_1;
#X obj 110 6 * 3;
#X obj 345 -67 r rssi_2;
#X msg 236 -58 1;
#X obj 265 -31 *;
#X obj 282 -2 * 3;
#X obj 253 32 pack 1 600 1 0.9;
#X msg 731 -140 90;
#X obj 652 -211 r rssi_3;
#X obj 495 289 s~ high;
#X obj 241 288 s~ kick;
#X obj 383 288 s~ snare;
#N canvas 967 151 284 208 originalset 0;
#X msg 135 141 50 300 4 0.9;
#X msg 135 119 100 400 1 0.3;
#X msg 132 72 500 600 1 0.2;
#X msg 134 94 200 600 1 0.25;
#X msg 35 94 600 100;
#X msg 36 116 1800 80;
#X msg 34 73 300 130;
#X text 34 29 kick;
#X text 140 36 snare;
#X restore 259 130 pd originalset;
#X text 651 -237 set;
#X text 831 -240 trigger;
#X text 733 -269 <high_sound>;
#X text 70 -168 trigger;
#X text 236 -163 trigger;
#X text 114 -93 set;
#X text 354 -86 set;
#X text 236 -188 <snare_sound>;
#X text 61 -189 <kick_sound>;
#X connect 0 0 22 0;
#X connect 1 0 20 0;
#X connect 2 0 23 0;
#X connect 2 1 24 0;
#X connect 4 0 5 0;
#X connect 5 0 7 0;
#X connect 6 0 2 0;
#X connect 7 0 8 0;
#X connect 8 0 14 0;
#X connect 9 0 16 0;
#X connect 10 0 0 2;
#X connect 11 0 9 0;
#X connect 12 0 10 0;
#X connect 13 0 8 1;
#X connect 14 0 6 0;
#X connect 15 0 17 1;
#X connect 16 0 17 0;
#X connect 17 0 18 0;
#X connect 18 0 19 0;
#X connect 19 0 2 1;
#X connect 20 0 0 0;
#X connect 21 0 0 1;
#X restore 387 -173 pd meetSounds;
#X obj 645 -167 r rssi_1;
#X obj 705 -167 r rssi_2;
#X obj 764 -167 r rssi_3;
#N canvas 106 46 1119 469 betweenCenter 1;
#X obj 82 219 osc~;
#X obj 215 345 *~;
#X obj 229 317 line~;
#X text 300 256 on;
#X text 297 285 off;
#X text 266 310 envelope;
#X text 266 323 generator;
#X obj 191 52 inlet;
#X msg 248 286 0 500;
#X obj 306 179 sel 1;
#X obj 229 232 bng 15 250 50 0 empty empty empty 17 7 0 10 -262144
-1 -1;
#X obj 403 224 osc~;
#X obj 536 350 *~;
#X obj 550 322 line~;
#X text 621 261 on;
#X text 618 290 off;
#X text 587 315 envelope;
#X text 587 328 generator;
#X obj 512 57 inlet;
#X msg 569 291 0 500;
#X obj 627 184 sel 1;
#X obj 550 237 bng 15 250 50 0 empty empty empty 17 7 0 10 -262144
-1 -1;
#X obj 779 218 osc~;
#X obj 912 344 *~;
#X obj 926 316 line~;
#X text 997 255 on;
#X text 994 284 off;
#X text 963 309 envelope;
#X text 963 322 generator;
#X obj 888 51 inlet;
#X msg 945 285 0 500;
#X obj 1003 178 sel 1;
#X obj 926 231 bng 15 250 50 0 empty empty empty 17 7 0 10 -262144
-1 -1;
#X obj 215 383 outlet~;
#X obj 535 386 outlet~;
#X obj 909 382 outlet~;
#N canvas 942 235 212 294 lowhighlow 0;
#X obj 115 162 - 30;
#X obj 118 74 t b f;
#X msg 78 127 110;
#X obj 115 190 * 10;
#X obj 119 33 inlet;
#X obj 40 75 loadbang;
#X obj 117 226 outlet;
#X connect 0 0 3 0;
#X connect 1 0 0 0;
#X connect 1 1 0 1;
#X connect 2 0 0 0;
#X connect 3 0 6 0;
#X connect 4 0 1 0;
#X connect 5 0 2 0;
#X restore 84 103 pd lowhighlow;
#N canvas 942 235 212 294 lowhighlow 0;
#X obj 115 162 - 30;
#X obj 118 74 t b f;
#X msg 78 127 110;
#X obj 115 190 * 10;
#X obj 119 33 inlet;
#X obj 40 75 loadbang;
#X obj 117 226 outlet;
#X connect 0 0 3 0;
#X connect 1 0 0 0;
#X connect 1 1 0 1;
#X connect 2 0 0 0;
#X connect 3 0 6 0;
#X connect 4 0 1 0;
#X connect 5 0 2 0;
#X restore 457 114 pd lowhighlow;
#N canvas 942 235 212 294 lowhighlow 0;
#X obj 115 162 - 30;
#X obj 118 74 t b f;
#X msg 78 127 110;
#X obj 115 190 * 10;
#X obj 119 33 inlet;
#X obj 40 75 loadbang;
#X obj 117 226 outlet;
#X connect 0 0 3 0;
#X connect 1 0 0 0;
#X connect 1 1 0 1;
#X connect 2 0 0 0;
#X connect 3 0 6 0;
#X connect 4 0 1 0;
#X connect 5 0 2 0;
#X restore 841 104 pd lowhighlow;
#X obj 598 147 greaterOnce 85;
#X obj 974 141 greaterOnce 85;
#X msg 377 52 0;
#X obj 376 12 loadbang;
#X obj 277 142 greaterOnce 85;
#X msg 325 59 1;
#X msg 229 261 0.01 500;
#X msg 550 266 0.01 500;
#X msg 926 260 0.01 500;
#X obj 259 16 r bcsoundOff;
#X obj 477 17 r bcsoundOn;
#X connect 0 0 1 0;
#X connect 1 0 33 0;
#X connect 2 0 1 1;
#X connect 7 0 36 0;
#X connect 7 0 43 0;
#X connect 8 0 2 0;
#X connect 9 0 8 0;
#X connect 9 1 10 0;
#X connect 10 0 45 0;
#X connect 11 0 12 0;
#X connect 12 0 34 0;
#X connect 13 0 12 1;
#X connect 18 0 37 0;
#X connect 18 0 39 0;
#X connect 19 0 13 0;
#X connect 20 0 19 0;
#X connect 20 1 21 0;
#X connect 21 0 46 0;
#X connect 22 0 23 0;
#X connect 23 0 35 0;
#X connect 24 0 23 1;
#X connect 29 0 38 0;
#X connect 29 0 40 0;
#X connect 30 0 24 0;
#X connect 31 0 30 0;
#X connect 31 1 32 0;
#X connect 32 0 47 0;
#X connect 36 0 0 0;
#X connect 37 0 11 0;
#X connect 38 0 22 0;
#X connect 39 1 20 0;
#X connect 40 1 31 0;
#X connect 41 0 9 0;
#X connect 41 0 20 0;
#X connect 41 0 31 0;
#X connect 42 0 44 0;
#X connect 43 1 9 0;
#X connect 44 0 9 0;
#X connect 44 0 20 0;
#X connect 44 0 31 0;
#X connect 45 0 2 0;
#X connect 46 0 13 0;
#X connect 47 0 24 0;
#X connect 48 0 44 0;
#X connect 49 0 41 0;
#X restore 645 -142 pd betweenCenter;
#X obj 645 -89 s~ bc_1;
#X obj 694 -89 s~ bc_2;
#X obj 744 -89 s~ bc_3;
#X text 18 238 comment;
#X connect 1 0 2 0;
#X connect 2 0 3 0;
#X connect 4 0 5 0;
#X connect 6 0 7 0;
#X connect 8 0 6 0;
#X connect 9 0 6 0;
#X connect 10 0 8 0;
#X connect 11 0 9 0;
#X connect 13 0 12 0;
#X connect 21 0 15 0;
#X connect 21 1 16 0;
#X connect 21 2 17 0;
#X connect 21 3 19 0;
#X connect 21 4 18 0;
#X connect 25 0 28 0;
#X connect 26 0 28 1;
#X connect 27 0 28 2;
#X connect 28 0 29 0;
#X connect 28 1 30 0;
#X connect 28 2 31 0;
