#N canvas 417 22 1021 614 10;
#X declare -lib mrpeach;
#X obj 13 -203 import mrpeach;
#X obj 14 -311 loadbang;
#X obj 14 -283 delay 2000;
#X msg 14 -250 \; pd dsp 1;
#X obj 14 -166 udpreceive 5557;
#N canvas 447 135 471 404 oscReceive 0;
#X obj 70 37 inlet;
#X obj 70 113 route /dist;
#X obj 179 114 route /rssi;
#X obj 70 162 route 0 1 2;
#X obj 179 161 route 0 1 2;
#X obj 247 339 s rssi_1;
#X obj 315 340 s rssi_2;
#X obj 379 340 s rssi_3;
#X obj 70 73 unpackOSC;
#X obj 44 339 s dist_1;
#X obj 112 340 s dist_2;
#X obj 176 340 s dist_3;
#X connect 0 0 8 0;
#X connect 1 0 3 0;
#X connect 2 0 4 0;
#X connect 3 0 9 0;
#X connect 3 1 10 0;
#X connect 3 2 11 0;
#X connect 4 0 5 0;
#X connect 4 1 6 0;
#X connect 4 2 7 0;
#X connect 8 0 1 0;
#X connect 8 0 2 0;
#X restore 14 -132 pd oscReceive;
#X obj 120 150 tgl 15 0 empty empty empty 17 7 0 10 -262144 -1 -1 0
1;
#X obj 121 194 rec;
#X msg 18 47 1;
#X msg 119 44 0;
#X obj 18 17 r recStartMsg;
#X obj 119 16 r recStopMsg;
#N canvas 543 163 297 294 recCon 0;
#X obj 23 15 inlet;
#X obj 23 51 unpackOSC;
#X obj 23 85 route /recReq;
#X obj 23 153 route 0 1;
#X obj 126 213 s recStartMsg;
#X obj 23 211 s recStopMsg;
#X connect 0 0 1 0;
#X connect 1 0 2 0;
#X connect 2 0 3 0;
#X connect 3 0 5 0;
#X connect 3 1 4 0;
#X restore 127 -130 pd recCon;
#X obj 127 -164 udpreceive 5558;
#N canvas 660 72 439 555 meet 0;
#X obj 33 46 r dist_1;
#X obj 135 318 +;
#X obj 159 345 +;
#X obj 158 386 sel 3;
#X obj 150 46 r dist_2;
#X obj 253 47 r dist_3;
#X obj 319 206 t b f;
#X obj 211 207 t b f;
#X obj 245 384 lessOnce 3;
#X msg 245 337 4;
#X obj 33 92 lessOnce \$1;
#X obj 150 92 lessOnce \$2;
#X obj 253 93 lessOnce \$3;
#X obj 58 492 outlet;
#X obj 135 492 outlet;
#X obj 211 493 outlet;
#X obj 288 493 outlet;
#X obj 365 493 outlet;
#X connect 0 0 10 0;
#X connect 1 0 2 0;
#X connect 2 0 3 0;
#X connect 3 0 9 0;
#X connect 3 0 16 0;
#X connect 3 1 8 0;
#X connect 4 0 11 0;
#X connect 5 0 12 0;
#X connect 6 0 1 0;
#X connect 6 1 2 1;
#X connect 7 0 1 0;
#X connect 7 1 1 1;
#X connect 8 0 17 0;
#X connect 9 0 8 0;
#X connect 10 0 13 0;
#X connect 10 1 1 0;
#X connect 11 0 14 0;
#X connect 11 1 7 0;
#X connect 12 0 15 0;
#X connect 12 1 6 0;
#X restore 14 -102 pd meet 30 30 30;
#N canvas 314 72 1000 749 sounds 0;
#X obj 714 -47 r dist_1;
#X obj 182 -214 r dist_2;
#X obj 639 -293 r dist_3;
#X obj 781 -47 r rssi_1;
#X obj 243 -214 r rssi_2;
#X obj 719 -293 r rssi_3;
#X obj 137 35 phasor~ 399;
#X obj 186 75 *~;
#X obj 126 -41 osc~;
#X obj 225 -77 phasor~ 399;
#X floatatom 261 -117 5 0 0 0 - - -;
#X obj 729 49 noise~;
#X obj 141 -1 *~;
#X obj 194 -45 * 10;
#X msg 201 -9 100;
#X obj 208 -155 / 20;
#X obj 346 102 *~;
#X obj 537 -193 bng 15 250 50 0 empty empty empty 17 7 0 10 -262144
-1 -1;
#X obj 537 -105 bng 15 250 50 0 empty empty empty 17 7 0 10 -262144
-1 -1;
#X obj 533 -160 metro 2000;
#X floatatom 623 -125 5 0 0 0 - - -;
#X obj 569 -30 sel 1;
#X obj 510 -30 sel 0;
#X obj 566 21 bng 15 250 50 0 empty empty empty 17 7 0 10 -262144 -1
-1;
#X msg 470 19 1;
#X msg 507 18 0;
#X floatatom 474 53 5 0 0 0 - - -;
#X obj 589 21 bng 15 250 50 0 empty empty empty 17 7 0 10 -262144 -1
-1;
#X obj 544 -62 tgl 15 0 empty empty empty 17 7 0 10 -262144 -1 -1 0
1;
#X obj 517 -227 * 80;
#X obj 719 -191 osc~ 399;
#X obj 459 -112 *~;
#X obj 565 135 *~;
#X obj 715 -4 / 100;
#X obj 724 111 bp~ 400 0.5;
#X obj 785 -3 * 10;
#X obj 864 2 / 100;
#X obj 851 93 -;
#X msg 839 29 1;
#X obj 731 233 noise~;
#X obj 731 262 bp~ 400 0.5;
#X obj 894 203 *;
#X obj 847 153 + 900;
#X obj 804 191 - 0.1;
#X msg 448 -50 0;
#X obj 721 -236 * 90;
#X obj 626 -245 * 5;
#X obj 305 59 bp~ 4200 0.01;
#X obj 380 18 lop~ 100;
#X obj 380 -14 phasor~ 399;
#X obj 426 -262 loadbang;
#X obj 422 115 *~ 0.1;
#X connect 0 0 33 0;
#X connect 1 0 8 0;
#X connect 1 0 15 0;
#X connect 2 0 29 0;
#X connect 2 0 46 0;
#X connect 3 0 35 0;
#X connect 3 0 36 0;
#X connect 4 0 13 0;
#X connect 5 0 45 0;
#X connect 6 0 7 0;
#X connect 8 0 12 1;
#X connect 9 0 7 1;
#X connect 10 0 9 1;
#X connect 11 0 34 0;
#X connect 12 0 6 0;
#X connect 13 0 12 0;
#X connect 14 0 6 1;
#X connect 15 0 9 0;
#X connect 17 0 19 0;
#X connect 18 0 28 0;
#X connect 19 0 18 0;
#X connect 21 0 23 0;
#X connect 21 0 24 0;
#X connect 21 1 27 0;
#X connect 22 0 25 0;
#X connect 24 0 26 0;
#X connect 25 0 26 0;
#X connect 26 0 51 0;
#X connect 28 0 21 0;
#X connect 28 0 22 0;
#X connect 28 0 44 0;
#X connect 29 0 31 0;
#X connect 30 0 31 1;
#X connect 31 0 49 0;
#X connect 33 0 32 1;
#X connect 34 0 32 0;
#X connect 35 0 34 1;
#X connect 35 0 42 0;
#X connect 36 0 37 1;
#X connect 36 0 41 1;
#X connect 37 0 34 2;
#X connect 37 0 43 0;
#X connect 38 0 37 0;
#X connect 39 0 40 0;
#X connect 40 0 32 0;
#X connect 41 0 40 1;
#X connect 42 0 41 0;
#X connect 43 0 40 2;
#X connect 44 0 49 1;
#X connect 45 0 30 0;
#X connect 46 0 19 1;
#X connect 46 0 20 0;
#X connect 47 0 16 0;
#X connect 48 0 16 0;
#X connect 49 0 48 0;
#X connect 49 0 47 0;
#X connect 50 0 17 0;
#X connect 51 0 16 1;
#X restore 657 -274 pd sounds;
#X obj 18 -28 s meetAB;
#X obj 82 -28 s meetBC;
#X obj 142 -27 s meetCA;
#X obj 254 -28 s notAll;
#X obj 209 -28 s all;
#X obj 662 -140 click~;
#X obj 501 112 dac~;
#X obj 342 -183 s~ syn_2;
#X obj 502 25 r~ syn_2;
#N canvas 954 75 281 374 s1 0;
#X obj 110 167 *~;
#X obj 50 51 osc~;
#X obj 170 48 phasor~ 399;
#X obj 65 91 *~;
#X obj 118 47 * 10;
#X obj 61 127 phasor~ 399;
#X obj 157 12 / 20;
#X obj 110 207 outlet~;
#X obj 52 -44 inlet;
#X obj 116 -46 inlet;
#X connect 0 0 7 0;
#X connect 1 0 3 1;
#X connect 2 0 0 1;
#X connect 3 0 5 0;
#X connect 4 0 3 0;
#X connect 5 0 0 0;
#X connect 6 0 2 0;
#X connect 8 0 1 0;
#X connect 8 0 6 0;
#X connect 9 0 4 0;
#X restore 342 -219 pd s1;
#X msg 342 -254 10;
#X msg 381 -252 50;
#X obj 339 -291 loadbang;
#X msg 489 -252 50;
#X obj 447 -291 loadbang;
#X obj 450 -183 s~ p;
#N canvas 717 63 395 379 s2 0;
#X obj 110 167 *~;
#X obj 50 51 osc~;
#X obj 170 48 phasor~ 399;
#X obj 65 91 *~;
#X obj 118 47 * 10;
#X obj 61 127 phasor~ 399;
#X obj 157 12 / 20;
#X obj 110 271 outlet~;
#X obj 52 -44 inlet;
#X obj 116 -46 inlet;
#X obj 110 217 *~;
#X obj 274 85 bng 15 250 50 0 empty empty empty 17 7 0 10 -262144 -1
-1;
#X obj 267 -15 inlet;
#X obj 275 123 lineN 10 50 100;
#X connect 0 0 10 0;
#X connect 1 0 3 1;
#X connect 2 0 0 1;
#X connect 3 0 5 0;
#X connect 4 0 3 0;
#X connect 5 0 0 0;
#X connect 6 0 2 0;
#X connect 8 0 1 0;
#X connect 8 0 6 0;
#X connect 9 0 4 0;
#X connect 10 0 7 0;
#X connect 11 0 13 0;
#X connect 12 0 11 0;
#X connect 13 0 10 1;
#X restore 450 -219 pd s2;
#X obj 585 53 r~ p;
#X obj 544 -296 tgl 15 0 empty empty empty 17 7 0 10 -262144 -1 -1
0 1;
#X msg 450 -254 30;
#X obj 538 -258 metro 500;
#X connect 1 0 2 0;
#X connect 2 0 3 0;
#X connect 4 0 5 0;
#X connect 6 0 7 0;
#X connect 8 0 6 0;
#X connect 9 0 6 0;
#X connect 10 0 8 0;
#X connect 11 0 9 0;
#X connect 13 0 12 0;
#X connect 14 0 16 0;
#X connect 14 1 17 0;
#X connect 14 2 18 0;
#X connect 14 3 20 0;
#X connect 14 4 19 0;
#X connect 25 0 23 0;
#X connect 26 0 25 0;
#X connect 27 0 25 1;
#X connect 28 0 26 0;
#X connect 28 0 27 0;
#X connect 29 0 32 1;
#X connect 30 0 35 0;
#X connect 30 0 29 0;
#X connect 32 0 31 0;
#X connect 33 0 22 1;
#X connect 34 0 36 0;
#X connect 35 0 32 0;
#X connect 36 0 32 2;
