#N canvas 635 69 588 512 10;
#X obj 103 97 inlet;
#X obj 105 144 time;
#X obj 116 352 outlet;
#X obj 176 350 outlet;
#X obj 238 354 outlet;
#X obj 305 354 outlet;
#X obj 220 189 twodigi;
#X obj 107 188 twodigi;
#X obj 163 186 twodigi;
#X obj 305 312 ftos;
#X connect 0 0 1 0;
#X connect 1 0 7 0;
#X connect 1 1 8 0;
#X connect 1 2 6 0;
#X connect 1 3 9 0;
#X connect 6 0 4 0;
#X connect 7 0 2 0;
#X connect 8 0 3 0;
#X connect 9 0 5 0;
