#N canvas 349 22 852 799 10;
#X msg 395 330 10;
#X obj 64 335 pack f f;
#X msg 112 421 set \$1\$2;
#X msg 103 465 09;
#X obj 374 358 >=;
#X msg 64 300 0;
#X obj 91 245 t b a;
#X msg 227 389 9;
#X msg 258 329 set \$1;
#X obj 288 634 gate 1;
#X obj 212 628 gate 1;
#X obj 376 411 sel 1;
#X msg 222 521 1;
#X msg 265 522 0;
#X msg 329 523 1;
#X msg 372 524 0;
#X obj 130 135 t a a b;
#X obj 184 274 t b a;
#X obj 68 367 t b a;
#X obj 132 51 inlet;
#X obj 230 707 outlet;
#X obj 293 676 ftos;
#X obj 217 673 symbol;
#X connect 0 0 4 1;
#X connect 1 0 18 0;
#X connect 2 0 3 0;
#X connect 3 0 10 1;
#X connect 4 0 11 0;
#X connect 5 0 1 0;
#X connect 6 0 5 0;
#X connect 6 1 1 1;
#X connect 7 0 9 1;
#X connect 8 0 7 0;
#X connect 9 0 21 0;
#X connect 10 0 22 0;
#X connect 11 0 13 0;
#X connect 11 0 14 0;
#X connect 11 1 12 0;
#X connect 11 1 15 0;
#X connect 12 0 10 0;
#X connect 13 0 10 0;
#X connect 14 0 9 0;
#X connect 15 0 9 0;
#X connect 16 0 6 0;
#X connect 16 0 17 0;
#X connect 16 1 4 0;
#X connect 16 2 0 0;
#X connect 17 0 7 0;
#X connect 17 1 8 0;
#X connect 18 0 3 0;
#X connect 18 1 2 0;
#X connect 19 0 16 0;
#X connect 21 0 20 0;
#X connect 22 0 20 0;
